<mxfile host="app.diagrams.net" modified="2023-05-04T16:46:08.265Z" agent="Mozilla/5.0 (Windows NT 10.0; Win64; x64) AppleWebKit/537.36 (KHTML, like Gecko) Chrome/112.0.0.0 Safari/537.36" etag="4sPf2cTtgHweycz-FCsB" version="21.2.6" type="device">
  <diagram name="Страница 1" id="l2J3NimuWS5fqat5X6ve">
    <mxGraphModel dx="1434" dy="707" grid="1" gridSize="10" guides="1" tooltips="1" connect="1" arrows="1" fold="1" page="1" pageScale="1" pageWidth="827" pageHeight="1169" math="0" shadow="0">
      <root>
        <mxCell id="0" />
        <mxCell id="1" parent="0" />
        <mxCell id="xlUVXcKxFcY-neK0sW4z-6" value="" style="edgeStyle=orthogonalEdgeStyle;rounded=0;orthogonalLoop=1;jettySize=auto;html=1;" edge="1" parent="1" source="xlUVXcKxFcY-neK0sW4z-1" target="xlUVXcKxFcY-neK0sW4z-5">
          <mxGeometry relative="1" as="geometry" />
        </mxCell>
        <mxCell id="xlUVXcKxFcY-neK0sW4z-1" value="Start" style="ellipse;whiteSpace=wrap;html=1;" vertex="1" parent="1">
          <mxGeometry x="374" y="30" width="120" height="80" as="geometry" />
        </mxCell>
        <mxCell id="xlUVXcKxFcY-neK0sW4z-2" value="&lt;em style=&quot;box-sizing: border-box; color: rgb(44, 45, 48); font-family: Roboto, &amp;quot;San Francisco&amp;quot;, &amp;quot;Helvetica Neue&amp;quot;, Helvetica, Arial; font-size: 15px; text-align: start; background-color: rgb(255, 255, 255);&quot;&gt;Задача&lt;/em&gt;: Написать программу, которая из имеющегося массива строк формирует новый массив из строк, длина которых меньше, либо равна 3 символам. Первоначальный массив можно ввести с клавиатуры, либо задать на старте выполнения алгоритма. При решении не рекомендуется пользоваться коллекциями, лучше обойтись исключительно массивами." style="rounded=0;whiteSpace=wrap;html=1;" vertex="1" parent="1">
          <mxGeometry x="40" width="240" height="160" as="geometry" />
        </mxCell>
        <mxCell id="xlUVXcKxFcY-neK0sW4z-3" value="End" style="ellipse;whiteSpace=wrap;html=1;" vertex="1" parent="1">
          <mxGeometry x="544" y="390" width="120" height="80" as="geometry" />
        </mxCell>
        <mxCell id="xlUVXcKxFcY-neK0sW4z-10" value="" style="edgeStyle=orthogonalEdgeStyle;rounded=0;orthogonalLoop=1;jettySize=auto;html=1;" edge="1" parent="1" source="xlUVXcKxFcY-neK0sW4z-5" target="xlUVXcKxFcY-neK0sW4z-9">
          <mxGeometry relative="1" as="geometry" />
        </mxCell>
        <mxCell id="xlUVXcKxFcY-neK0sW4z-5" value="array []&lt;br&gt;size&lt;br&gt;max = 3&lt;br&gt;index = 0&lt;br&gt;index2 = 0&lt;br&gt;array2 []" style="rounded=0;whiteSpace=wrap;html=1;" vertex="1" parent="1">
          <mxGeometry x="374" y="130" width="120" height="110" as="geometry" />
        </mxCell>
        <mxCell id="xlUVXcKxFcY-neK0sW4z-12" value="Нет" style="edgeStyle=orthogonalEdgeStyle;rounded=0;orthogonalLoop=1;jettySize=auto;html=1;" edge="1" parent="1" source="xlUVXcKxFcY-neK0sW4z-9" target="xlUVXcKxFcY-neK0sW4z-11">
          <mxGeometry relative="1" as="geometry">
            <Array as="points">
              <mxPoint x="534" y="310" />
              <mxPoint x="534" y="310" />
            </Array>
          </mxGeometry>
        </mxCell>
        <mxCell id="xlUVXcKxFcY-neK0sW4z-16" value="Да" style="edgeStyle=orthogonalEdgeStyle;rounded=0;orthogonalLoop=1;jettySize=auto;html=1;" edge="1" parent="1" source="xlUVXcKxFcY-neK0sW4z-9" target="xlUVXcKxFcY-neK0sW4z-15">
          <mxGeometry relative="1" as="geometry">
            <Array as="points">
              <mxPoint x="434" y="360" />
              <mxPoint x="434" y="360" />
            </Array>
          </mxGeometry>
        </mxCell>
        <mxCell id="xlUVXcKxFcY-neK0sW4z-9" value="index &amp;lt; size" style="rhombus;whiteSpace=wrap;html=1;" vertex="1" parent="1">
          <mxGeometry x="364" y="270" width="140" height="80" as="geometry" />
        </mxCell>
        <mxCell id="xlUVXcKxFcY-neK0sW4z-13" value="" style="edgeStyle=orthogonalEdgeStyle;rounded=0;orthogonalLoop=1;jettySize=auto;html=1;" edge="1" parent="1" source="xlUVXcKxFcY-neK0sW4z-11" target="xlUVXcKxFcY-neK0sW4z-3">
          <mxGeometry relative="1" as="geometry" />
        </mxCell>
        <mxCell id="xlUVXcKxFcY-neK0sW4z-11" value="print array2 []" style="shape=parallelogram;perimeter=parallelogramPerimeter;whiteSpace=wrap;html=1;fixedSize=1;" vertex="1" parent="1">
          <mxGeometry x="544" y="280" width="120" height="60" as="geometry" />
        </mxCell>
        <mxCell id="xlUVXcKxFcY-neK0sW4z-19" value="Да" style="edgeStyle=orthogonalEdgeStyle;rounded=0;orthogonalLoop=1;jettySize=auto;html=1;" edge="1" parent="1" source="xlUVXcKxFcY-neK0sW4z-15" target="xlUVXcKxFcY-neK0sW4z-18">
          <mxGeometry relative="1" as="geometry" />
        </mxCell>
        <mxCell id="xlUVXcKxFcY-neK0sW4z-24" value="Нет" style="edgeStyle=orthogonalEdgeStyle;rounded=0;orthogonalLoop=1;jettySize=auto;html=1;" edge="1" parent="1" source="xlUVXcKxFcY-neK0sW4z-15" target="xlUVXcKxFcY-neK0sW4z-21">
          <mxGeometry x="-0.4634" relative="1" as="geometry">
            <mxPoint as="offset" />
          </mxGeometry>
        </mxCell>
        <mxCell id="xlUVXcKxFcY-neK0sW4z-15" value="array[index].Length &amp;lt;= max" style="rhombus;whiteSpace=wrap;html=1;" vertex="1" parent="1">
          <mxGeometry x="339" y="390" width="190" height="80" as="geometry" />
        </mxCell>
        <mxCell id="xlUVXcKxFcY-neK0sW4z-22" value="" style="edgeStyle=orthogonalEdgeStyle;rounded=0;orthogonalLoop=1;jettySize=auto;html=1;" edge="1" parent="1" source="xlUVXcKxFcY-neK0sW4z-18" target="xlUVXcKxFcY-neK0sW4z-20">
          <mxGeometry relative="1" as="geometry" />
        </mxCell>
        <mxCell id="xlUVXcKxFcY-neK0sW4z-18" value="array2 [index2] = array [index]" style="rounded=0;whiteSpace=wrap;html=1;" vertex="1" parent="1">
          <mxGeometry x="344" y="510" width="180" height="60" as="geometry" />
        </mxCell>
        <mxCell id="xlUVXcKxFcY-neK0sW4z-23" value="" style="edgeStyle=orthogonalEdgeStyle;rounded=0;orthogonalLoop=1;jettySize=auto;html=1;" edge="1" parent="1" source="xlUVXcKxFcY-neK0sW4z-20" target="xlUVXcKxFcY-neK0sW4z-21">
          <mxGeometry relative="1" as="geometry" />
        </mxCell>
        <mxCell id="xlUVXcKxFcY-neK0sW4z-20" value="index2 = index2 +1" style="rounded=0;whiteSpace=wrap;html=1;" vertex="1" parent="1">
          <mxGeometry x="164" y="510" width="120" height="60" as="geometry" />
        </mxCell>
        <mxCell id="xlUVXcKxFcY-neK0sW4z-25" value="" style="edgeStyle=orthogonalEdgeStyle;rounded=0;orthogonalLoop=1;jettySize=auto;html=1;" edge="1" parent="1" source="xlUVXcKxFcY-neK0sW4z-21" target="xlUVXcKxFcY-neK0sW4z-9">
          <mxGeometry relative="1" as="geometry" />
        </mxCell>
        <mxCell id="xlUVXcKxFcY-neK0sW4z-21" value="index = index +1" style="rounded=0;whiteSpace=wrap;html=1;" vertex="1" parent="1">
          <mxGeometry x="164" y="280" width="120" height="60" as="geometry" />
        </mxCell>
      </root>
    </mxGraphModel>
  </diagram>
</mxfile>
